<svg xmlns="http://www.w3.org/2000/svg" xmlns:xlink="http://www.w3.org/1999/xlink" width="615" zoomAndPan="magnify" viewBox="97 636 615 167" height="167" preserveAspectRatio="xMidYMid meet" version="1.0"><defs><clipPath id="c254a83504"><path d="M 343 639 L 390.699219 639 L 390.699219 685.589844 L 343 685.589844 Z M 343 639 " clip-rule="nonzero"/></clipPath><clipPath id="2600ef1a2c"><path d="M 367.015625 639.175781 L 373.386719 654.929688 L 390.226562 662.113281 L 373.386719 669.601562 L 367.015625 685.359375 L 360.070312 669.332031 L 343.769531 662.417969 L 360.070312 655.203125 Z M 367.015625 639.175781 " clip-rule="nonzero"/></clipPath><clipPath id="f6e042f6c2"><path d="M 0.679688 0.121094 L 47.238281 0.121094 L 47.238281 46.441406 L 0.679688 46.441406 Z M 0.679688 0.121094 " clip-rule="nonzero"/></clipPath><clipPath id="dfa763104c"><path d="M 24.015625 0.175781 L 30.386719 15.929688 L 47.226562 23.113281 L 30.386719 30.601562 L 24.015625 46.359375 L 17.070312 30.332031 L 0.769531 23.417969 L 17.070312 16.203125 Z M 24.015625 0.175781 " clip-rule="nonzero"/></clipPath><clipPath id="15849cdc66"><rect x="0" width="48" y="0" height="47"/></clipPath><clipPath id="d8001264ac"><path d="M 341.429688 636.316406 L 393 636.316406 L 393 687.933594 L 341.429688 687.933594 Z M 341.429688 636.316406 " clip-rule="nonzero"/></clipPath><clipPath id="294f205472"><path d="M 367.863281 638.835938 L 374.234375 654.59375 L 373.386719 654.929688 L 373.722656 654.082031 L 390.566406 661.265625 L 392.460938 662.082031 L 390.566406 662.925781 L 373.722656 670.414062 L 373.351562 669.601562 L 374.199219 669.941406 L 367.828125 685.699219 L 367.015625 687.695312 L 366.167969 685.699219 L 359.222656 669.671875 L 360.070312 669.296875 L 359.730469 670.144531 L 343.433594 663.230469 L 341.5 662.417969 L 343.398438 661.570312 L 359.695312 654.355469 L 360.070312 655.167969 L 359.257812 654.796875 L 366.203125 638.800781 L 367.050781 636.835938 L 367.863281 638.835938 M 366.167969 639.511719 L 367.015625 639.175781 L 367.828125 639.546875 L 360.882812 655.539062 L 360.746094 655.878906 L 360.40625 656.015625 L 344.109375 663.230469 L 343.738281 662.417969 L 344.074219 661.570312 L 360.375 668.484375 L 360.714844 668.621094 L 360.847656 668.957031 L 367.792969 684.984375 L 366.949219 685.359375 L 366.101562 685.019531 L 372.46875 669.261719 L 372.605469 668.925781 L 372.945312 668.789062 L 389.785156 661.300781 L 390.15625 662.113281 L 389.820312 662.960938 L 372.980469 655.777344 L 372.640625 655.640625 L 372.503906 655.304688 L 366.132812 639.546875 Z M 366.167969 639.511719 " clip-rule="nonzero"/></clipPath><clipPath id="090365f0ec"><path d="M 0.429688 0.71875 L 51.640625 0.71875 L 51.640625 51.839844 L 0.429688 51.839844 Z M 0.429688 0.71875 " clip-rule="nonzero"/></clipPath><clipPath id="c02617e1f6"><path d="M 26.863281 2.835938 L 33.234375 18.59375 L 32.386719 18.929688 L 32.722656 18.082031 L 49.566406 25.265625 L 51.460938 26.082031 L 49.566406 26.925781 L 32.722656 34.414062 L 32.351562 33.601562 L 33.199219 33.941406 L 26.828125 49.699219 L 26.015625 51.695312 L 25.167969 49.699219 L 18.222656 33.671875 L 19.070312 33.296875 L 18.730469 34.144531 L 2.433594 27.230469 L 0.5 26.417969 L 2.398438 25.570312 L 18.695312 18.355469 L 19.070312 19.167969 L 18.257812 18.796875 L 25.203125 2.800781 L 26.050781 0.835938 L 26.863281 2.835938 M 25.167969 3.511719 L 26.015625 3.175781 L 26.828125 3.546875 L 19.882812 19.539062 L 19.746094 19.878906 L 19.40625 20.015625 L 3.109375 27.230469 L 2.738281 26.417969 L 3.074219 25.570312 L 19.375 32.484375 L 19.714844 32.621094 L 19.847656 32.957031 L 26.792969 48.984375 L 25.949219 49.359375 L 25.101562 49.019531 L 31.46875 33.261719 L 31.605469 32.925781 L 31.945312 32.789062 L 48.785156 25.300781 L 49.15625 26.113281 L 48.820312 26.960938 L 31.980469 19.777344 L 31.640625 19.640625 L 31.503906 19.304688 L 25.132812 3.546875 Z M 25.167969 3.511719 " clip-rule="nonzero"/></clipPath><clipPath id="eaaa523cf0"><rect x="0" width="52" y="0" height="52"/></clipPath><clipPath id="79c0926cbf"><path d="M 630.015625 691.0625 L 711.351562 691.0625 L 711.351562 802.898438 L 630.015625 802.898438 Z M 630.015625 691.0625 " clip-rule="nonzero"/></clipPath><clipPath id="a01337329e"><path d="M 680.476562 739.335938 C 683.796875 740.996094 686.40625 742.351562 688.335938 743.335938 C 690.269531 744.316406 692.84375 746.011719 696.097656 748.214844 C 699.351562 750.414062 701.890625 752.550781 703.753906 754.550781 C 705.617188 756.550781 707.3125 759.054688 708.804688 762.105469 C 710.363281 765.121094 711.109375 768.308594 711.109375 771.628906 C 711.109375 781.011719 707.3125 788.46875 699.722656 793.992188 C 692.132812 799.515625 681.867188 802.257812 668.886719 802.257812 C 662.957031 802.257812 656.589844 801.480469 649.742188 799.886719 C 642.898438 798.261719 637.34375 796.53125 633.039062 794.601562 C 626.023438 791.347656 634.257812 752.144531 641.136719 772.984375 C 652.625 807.847656 706.023438 787.925781 682.949219 766.578125 C 680.105469 763.96875 674.917969 760.953125 667.632812 757.363281 L 659.976562 753.636719 C 657.773438 752.515625 656.082031 751.667969 654.894531 751.027344 C 653.742188 750.414062 651.980469 749.433594 649.742188 748.113281 C 647.441406 746.824219 645.609375 745.605469 644.253906 744.484375 C 642.867188 743.367188 641.273438 741.980469 639.511719 740.25 C 637.75 738.523438 636.324219 736.828125 635.34375 735.167969 C 634.359375 733.507812 633.546875 731.542969 632.871094 729.273438 C 632.15625 727.003906 631.820312 724.628906 631.820312 722.15625 C 631.820312 712.90625 635.648438 705.859375 642.765625 700.300781 C 659.164062 687.492188 685.527344 689.695312 703.214844 698.539062 C 708.296875 701.046875 703.007812 738.351562 696.199219 718.53125 C 695.183594 715.582031 694.980469 712.398438 693.183594 710.230469 C 674.886719 688.273438 643.882812 708.535156 659.941406 727.035156 C 662.347656 729.78125 666.484375 732.457031 672.140625 735.203125 Z M 680.476562 739.335938 " clip-rule="nonzero"/></clipPath><clipPath id="8e4387a17f"><path d="M 0.015625 0.0625 L 81.121094 0.0625 L 81.121094 111.898438 L 0.015625 111.898438 Z M 0.015625 0.0625 " clip-rule="nonzero"/></clipPath><clipPath id="7cf21fc205"><path d="M 50.476562 48.335938 C 53.796875 49.996094 56.40625 51.351562 58.335938 52.335938 C 60.269531 53.316406 62.84375 55.011719 66.097656 57.214844 C 69.351562 59.414062 71.890625 61.550781 73.753906 63.550781 C 75.617188 65.550781 77.3125 68.054688 78.804688 71.105469 C 80.363281 74.121094 81.109375 77.308594 81.109375 80.628906 C 81.109375 90.011719 77.3125 97.46875 69.722656 102.992188 C 62.132812 108.515625 51.867188 111.257812 38.886719 111.257812 C 32.957031 111.257812 26.589844 110.480469 19.742188 108.886719 C 12.898438 107.261719 7.34375 105.53125 3.039062 103.601562 C -3.976562 100.347656 4.257812 61.144531 11.136719 81.984375 C 22.625 116.847656 76.023438 96.925781 52.949219 75.578125 C 50.105469 72.96875 44.917969 69.953125 37.632812 66.363281 L 29.976562 62.636719 C 27.773438 61.515625 26.082031 60.667969 24.894531 60.027344 C 23.742188 59.414062 21.980469 58.433594 19.742188 57.113281 C 17.441406 55.824219 15.609375 54.605469 14.253906 53.484375 C 12.867188 52.367188 11.273438 50.980469 9.511719 49.25 C 7.75 47.523438 6.324219 45.828125 5.34375 44.167969 C 4.359375 42.507812 3.546875 40.542969 2.871094 38.273438 C 2.15625 36.003906 1.820312 33.628906 1.820312 31.15625 C 1.820312 21.90625 5.648438 14.859375 12.765625 9.300781 C 29.164062 -3.507812 55.527344 -1.304688 73.214844 7.539062 C 78.296875 10.046875 73.007812 47.351562 66.199219 27.53125 C 65.183594 24.582031 64.980469 21.398438 63.183594 19.230469 C 44.886719 -2.726562 13.882812 17.535156 29.941406 36.035156 C 32.347656 38.78125 36.484375 41.457031 42.140625 44.203125 Z M 50.476562 48.335938 " clip-rule="nonzero"/></clipPath><clipPath id="1e6516ad9e"><rect x="0" width="82" y="0" height="112"/></clipPath><clipPath id="330a2e94be"><path d="M 629.234375 690.28125 L 712.132812 690.28125 L 712.132812 803.683594 L 629.234375 803.683594 Z M 629.234375 690.28125 " clip-rule="nonzero"/></clipPath><clipPath id="ea05edbe8e"><path d="M 680.882812 738.523438 C 683.964844 740.046875 686.40625 741.335938 688.304688 742.285156 C 688.472656 742.386719 688.644531 742.453125 688.777344 742.519531 C 690.742188 743.570312 693.351562 745.265625 696.640625 747.433594 C 699.890625 749.671875 702.535156 751.839844 704.464844 753.90625 L 703.789062 754.515625 L 704.464844 753.90625 C 706.398438 755.972656 708.125 758.582031 709.652344 761.664062 L 708.835938 762.070312 L 709.652344 761.664062 C 711.242188 764.816406 712.054688 768.136719 712.054688 771.59375 L 711.140625 771.59375 L 712.054688 771.59375 C 712.054688 781.25 708.125 788.976562 700.300781 794.667969 C 692.503906 800.328125 682 803.105469 668.921875 803.105469 L 668.921875 802.191406 L 668.921875 803.105469 C 662.890625 803.105469 656.453125 802.292969 649.574219 800.734375 C 642.695312 799.105469 637.105469 797.34375 632.734375 795.378906 C 627.550781 792.972656 629.515625 776.742188 632.667969 770 C 633.785156 767.59375 635.648438 765.085938 638.054688 766.207031 C 639.613281 766.917969 640.898438 769.121094 642.085938 772.644531 C 647.847656 790.128906 664.449219 793.382812 676.140625 789.550781 C 684.40625 786.839844 689.558594 780.808594 687.355469 774.203125 C 686.644531 772 685.085938 769.628906 682.441406 767.1875 L 683.050781 766.511719 L 682.441406 767.1875 C 679.730469 764.679688 674.648438 761.734375 667.328125 758.140625 L 667.738281 757.328125 L 667.328125 758.140625 L 659.671875 754.414062 C 657.46875 753.296875 655.742188 752.449219 654.554688 751.769531 L 654.996094 750.992188 L 654.589844 751.804688 C 653.4375 751.195312 651.675781 750.210938 649.40625 748.890625 L 649.878906 748.113281 L 649.4375 748.890625 C 647.136719 747.570312 645.238281 746.351562 643.847656 745.199219 L 644.425781 744.484375 L 643.847656 745.199219 C 642.425781 744.078125 640.832031 742.65625 639.035156 740.929688 L 639.644531 740.285156 L 639.035156 740.929688 C 637.207031 739.167969 635.75 737.371094 634.734375 735.640625 L 635.511719 735.167969 L 634.734375 735.640625 C 633.714844 733.914062 632.871094 731.882812 632.15625 729.542969 L 633.039062 729.273438 L 632.191406 729.542969 C 631.445312 727.171875 631.109375 724.699219 631.109375 722.15625 L 632.023438 722.15625 L 631.109375 722.15625 C 631.109375 712.601562 635.070312 705.316406 642.425781 699.589844 L 642.96875 700.300781 L 642.425781 699.589844 C 659.199219 686.476562 685.964844 688.816406 703.824219 697.726562 L 703.417969 698.539062 L 703.824219 697.726562 C 707.992188 699.792969 706.363281 716.703125 703.550781 722.460938 C 702.738281 724.121094 701.316406 725.917969 699.316406 724.933594 C 697.894531 724.222656 696.707031 722.15625 695.554688 718.800781 C 695.214844 717.820312 694.980469 716.835938 694.742188 715.886719 C 694.503906 714.9375 694.300781 714.09375 694.03125 713.3125 C 693.691406 712.332031 693.285156 711.484375 692.707031 710.773438 L 693.421875 710.195312 L 692.707031 710.773438 C 682.816406 698.878906 669.160156 699.859375 661.804688 705.960938 C 656.183594 710.667969 654.183594 718.394531 660.519531 725.984375 C 660.621094 726.121094 660.722656 726.222656 660.824219 726.359375 C 663.09375 728.96875 667.09375 731.542969 672.75 734.320312 L 681.019531 738.488281 L 680.613281 739.300781 L 681.019531 738.488281 M 680.207031 740.113281 L 671.9375 735.949219 L 672.34375 735.132812 L 671.9375 735.949219 C 666.246094 733.167969 661.976562 730.457031 659.433594 727.578125 L 660.113281 726.96875 L 659.433594 727.578125 C 659.332031 727.441406 659.199219 727.308594 659.097656 727.171875 C 652.046875 718.734375 654.25 709.855469 660.585938 704.570312 C 668.683594 697.828125 683.457031 696.914062 694.03125 709.585938 C 694.808594 710.5 695.285156 711.585938 695.65625 712.667969 C 695.960938 713.550781 696.199219 714.5 696.4375 715.414062 C 696.671875 716.363281 696.910156 717.277344 697.214844 718.191406 L 696.367188 718.496094 L 697.214844 718.191406 C 698.402344 721.613281 699.417969 722.96875 700.0625 723.308594 C 700.332031 723.445312 700.941406 723.476562 701.859375 721.648438 C 704.90625 715.480469 705.347656 700.503906 702.976562 699.320312 C 685.457031 690.542969 659.503906 688.441406 643.476562 700.980469 C 636.5625 706.367188 632.871094 713.175781 632.871094 722.121094 C 632.871094 724.527344 633.175781 726.832031 633.851562 728.96875 C 634.53125 731.203125 635.308594 733.101562 636.222656 734.660156 C 637.140625 736.21875 638.460938 737.878906 640.222656 739.539062 C 641.984375 741.234375 643.542969 742.621094 644.933594 743.707031 C 646.253906 744.757812 648.015625 745.976562 650.285156 747.230469 C 652.523438 748.550781 654.285156 749.5 655.402344 750.109375 C 656.554688 750.753906 658.25 751.601562 660.453125 752.71875 L 660.042969 753.535156 L 660.453125 752.71875 L 668.109375 756.449219 C 675.394531 760.039062 680.714844 763.089844 683.660156 765.800781 C 686.472656 768.375 688.234375 771.015625 689.082031 773.59375 C 691.761719 781.726562 685.253906 788.398438 676.714844 791.210938 C 664.414062 795.277344 646.558594 791.855469 640.390625 773.152344 L 641.238281 772.882812 L 640.390625 773.152344 C 639.207031 769.59375 638.085938 768.136719 637.308594 767.796875 C 636.664062 767.492188 635.613281 767.933594 634.328125 770.710938 C 630.9375 777.996094 630.191406 792.128906 633.546875 793.6875 L 633.175781 794.5 L 633.546875 793.6875 C 637.78125 795.582031 643.273438 797.3125 650.082031 798.9375 L 649.878906 799.820312 L 650.082031 798.9375 C 656.859375 800.496094 663.160156 801.277344 669.023438 801.277344 C 681.867188 801.277344 691.929688 798.53125 699.316406 793.175781 L 699.859375 793.921875 L 699.316406 793.175781 C 706.667969 787.824219 710.328125 780.640625 710.328125 771.558594 C 710.328125 768.375 709.617188 765.324219 708.125 762.445312 C 706.667969 759.464844 705.007812 757.023438 703.214844 755.09375 C 701.417969 753.160156 698.910156 751.09375 695.691406 748.890625 L 696.199219 748.144531 L 695.691406 748.890625 C 692.4375 746.722656 689.894531 745.097656 688 744.078125 L 688.441406 743.265625 L 688.03125 744.078125 C 687.863281 744.011719 687.726562 743.910156 687.558594 743.84375 C 685.695312 742.859375 683.222656 741.605469 680.171875 740.082031 Z M 680.207031 740.113281 " clip-rule="nonzero"/></clipPath><clipPath id="226e21626b"><path d="M 0.234375 0.28125 L 83.078125 0.28125 L 83.078125 113.28125 L 0.234375 113.28125 Z M 0.234375 0.28125 " clip-rule="nonzero"/></clipPath><clipPath id="17c29c1c03"><path d="M 51.882812 48.523438 C 54.964844 50.046875 57.40625 51.335938 59.304688 52.285156 C 59.472656 52.386719 59.644531 52.453125 59.777344 52.519531 C 61.742188 53.570312 64.351562 55.265625 67.640625 57.433594 C 70.890625 59.671875 73.535156 61.839844 75.464844 63.90625 L 74.789062 64.515625 L 75.464844 63.90625 C 77.398438 65.972656 79.125 68.582031 80.652344 71.664062 L 79.835938 72.070312 L 80.652344 71.664062 C 82.242188 74.816406 83.054688 78.136719 83.054688 81.59375 L 82.140625 81.59375 L 83.054688 81.59375 C 83.054688 91.25 79.125 98.976562 71.300781 104.667969 C 63.503906 110.328125 53 113.105469 39.921875 113.105469 L 39.921875 112.191406 L 39.921875 113.105469 C 33.890625 113.105469 27.453125 112.292969 20.574219 110.734375 C 13.695312 109.105469 8.105469 107.34375 3.734375 105.378906 C -1.449219 102.972656 0.515625 86.742188 3.667969 80 C 4.785156 77.59375 6.648438 75.085938 9.054688 76.207031 C 10.613281 76.917969 11.898438 79.121094 13.085938 82.644531 C 18.847656 100.128906 35.449219 103.382812 47.140625 99.550781 C 55.40625 96.839844 60.558594 90.808594 58.355469 84.203125 C 57.644531 82 56.085938 79.628906 53.441406 77.1875 L 54.050781 76.511719 L 53.441406 77.1875 C 50.730469 74.679688 45.648438 71.734375 38.328125 68.140625 L 38.738281 67.328125 L 38.328125 68.140625 L 30.671875 64.414062 C 28.46875 63.296875 26.742188 62.449219 25.554688 61.769531 L 25.996094 60.992188 L 25.589844 61.804688 C 24.4375 61.195312 22.675781 60.210938 20.40625 58.890625 L 20.878906 58.113281 L 20.4375 58.890625 C 18.136719 57.570312 16.238281 56.351562 14.847656 55.199219 L 15.425781 54.484375 L 14.847656 55.199219 C 13.425781 54.078125 11.832031 52.65625 10.035156 50.929688 L 10.644531 50.285156 L 10.035156 50.929688 C 8.207031 49.167969 6.75 47.371094 5.734375 45.640625 L 6.511719 45.167969 L 5.734375 45.640625 C 4.714844 43.914062 3.871094 41.882812 3.15625 39.542969 L 4.039062 39.273438 L 3.191406 39.542969 C 2.445312 37.171875 2.109375 34.699219 2.109375 32.15625 L 3.023438 32.15625 L 2.109375 32.15625 C 2.109375 22.601562 6.070312 15.316406 13.425781 9.589844 L 13.96875 10.300781 L 13.425781 9.589844 C 30.199219 -3.523438 56.964844 -1.183594 74.824219 7.726562 L 74.417969 8.539062 L 74.824219 7.726562 C 78.992188 9.792969 77.363281 26.703125 74.550781 32.460938 C 73.738281 34.121094 72.316406 35.917969 70.316406 34.933594 C 68.894531 34.222656 67.707031 32.15625 66.554688 28.800781 C 66.214844 27.820312 65.980469 26.835938 65.742188 25.886719 C 65.503906 24.9375 65.300781 24.09375 65.03125 23.3125 C 64.691406 22.332031 64.285156 21.484375 63.707031 20.773438 L 64.421875 20.195312 L 63.707031 20.773438 C 53.816406 8.878906 40.160156 9.859375 32.804688 15.960938 C 27.183594 20.667969 25.183594 28.394531 31.519531 35.984375 C 31.621094 36.121094 31.722656 36.222656 31.824219 36.359375 C 34.09375 38.96875 38.09375 41.542969 43.75 44.320312 L 52.019531 48.488281 L 51.613281 49.300781 L 52.019531 48.488281 M 51.207031 50.113281 L 42.9375 45.949219 L 43.34375 45.132812 L 42.9375 45.949219 C 37.246094 43.167969 32.976562 40.457031 30.433594 37.578125 L 31.113281 36.96875 L 30.433594 37.578125 C 30.332031 37.441406 30.199219 37.308594 30.097656 37.171875 C 23.046875 28.734375 25.25 19.855469 31.585938 14.570312 C 39.683594 7.828125 54.457031 6.914062 65.03125 19.585938 C 65.808594 20.5 66.285156 21.585938 66.65625 22.667969 C 66.960938 23.550781 67.199219 24.5 67.4375 25.414062 C 67.671875 26.363281 67.910156 27.277344 68.214844 28.191406 L 67.367188 28.496094 L 68.214844 28.191406 C 69.402344 31.613281 70.417969 32.96875 71.0625 33.308594 C 71.332031 33.445312 71.941406 33.476562 72.859375 31.648438 C 75.90625 25.480469 76.347656 10.503906 73.976562 9.320312 C 56.457031 0.542969 30.503906 -1.558594 14.476562 10.980469 C 7.5625 16.367188 3.871094 23.175781 3.871094 32.121094 C 3.871094 34.527344 4.175781 36.832031 4.851562 38.96875 C 5.53125 41.203125 6.308594 43.101562 7.222656 44.660156 C 8.140625 46.21875 9.460938 47.878906 11.222656 49.539062 C 12.984375 51.234375 14.542969 52.621094 15.933594 53.707031 C 17.253906 54.757812 19.015625 55.976562 21.285156 57.230469 C 23.523438 58.550781 25.285156 59.5 26.402344 60.109375 C 27.554688 60.753906 29.25 61.601562 31.453125 62.71875 L 31.042969 63.535156 L 31.453125 62.71875 L 39.109375 66.449219 C 46.394531 70.039062 51.714844 73.089844 54.660156 75.800781 C 57.472656 78.375 59.234375 81.015625 60.082031 83.59375 C 62.761719 91.726562 56.253906 98.398438 47.714844 101.210938 C 35.414062 105.277344 17.558594 101.855469 11.390625 83.152344 L 12.238281 82.882812 L 11.390625 83.152344 C 10.207031 79.59375 9.085938 78.136719 8.308594 77.796875 C 7.664062 77.492188 6.613281 77.933594 5.328125 80.710938 C 1.9375 87.996094 1.191406 102.128906 4.546875 103.6875 L 4.175781 104.5 L 4.546875 103.6875 C 8.78125 105.582031 14.273438 107.3125 21.082031 108.9375 L 20.878906 109.820312 L 21.082031 108.9375 C 27.859375 110.496094 34.160156 111.277344 40.023438 111.277344 C 52.867188 111.277344 62.929688 108.53125 70.316406 103.175781 L 70.859375 103.921875 L 70.316406 103.175781 C 77.667969 97.824219 81.328125 90.640625 81.328125 81.558594 C 81.328125 78.375 80.617188 75.324219 79.125 72.445312 C 77.667969 69.464844 76.007812 67.023438 74.214844 65.09375 C 72.417969 63.160156 69.910156 61.09375 66.691406 58.890625 L 67.199219 58.144531 L 66.691406 58.890625 C 63.4375 56.722656 60.894531 55.097656 59 54.078125 L 59.441406 53.265625 L 59.03125 54.078125 C 58.863281 54.011719 58.726562 53.910156 58.558594 53.84375 C 56.695312 52.859375 54.222656 51.605469 51.171875 50.082031 Z M 51.207031 50.113281 " clip-rule="nonzero"/></clipPath><clipPath id="f2ad12f5b5"><rect x="0" width="84" y="0" height="114"/></clipPath><clipPath id="54efcbbb3d"><path d="M 397 647 L 624.539062 647 L 624.539062 802 L 397 802 Z M 397 647 " clip-rule="nonzero"/></clipPath><clipPath id="43bbc193a1"><path d="M 511.363281 763.257812 L 511.363281 677.835938 C 511.363281 673.160156 510.039062 669.027344 507.429688 665.503906 C 494.894531 648.660156 494.894531 655.742188 534.367188 647.171875 L 534.097656 748.652344 L 575.0625 722.359375 C 578.824219 719.921875 598.136719 708.367188 596.003906 704.84375 C 583.128906 683.597656 646.21875 690.273438 609.726562 710.027344 C 604 713.144531 591.058594 721.988281 586.378906 725.003906 L 568.726562 736.355469 L 602.238281 781.554688 C 605.289062 785.6875 608.746094 789.179688 612.707031 792.027344 C 620.265625 797.480469 624.433594 793.414062 624.433594 800.191406 L 584.007812 800.191406 L 546.601562 750.550781 L 532.4375 759.632812 C 533.996094 771.015625 539.585938 779.589844 543.449219 783.011719 C 551.003906 789.753906 556.902344 793.550781 556.902344 800.15625 L 493.132812 800.15625 C 492.757812 793.515625 501.265625 791.789062 506.378906 782.910156 C 508.039062 780.03125 510.277344 776.066406 511.089844 772.984375 C 496.484375 782.335938 479.207031 794.972656 463.078125 799.785156 C 458.164062 801.242188 453.726562 801.613281 448.167969 801.613281 C 432.886719 801.613281 420.519531 796.429688 411.132812 786.0625 C 401.746094 775.695312 397.035156 762.613281 397.035156 746.757812 C 397.035156 729.339844 401.949219 715.855469 411.742188 706.300781 C 421.535156 696.742188 435.460938 690.542969 452.132812 690.542969 C 460.398438 690.542969 467.582031 692.574219 474.496094 695.898438 C 479.917969 698.539062 483.8125 702.773438 486.492188 708.332031 C 489.101562 713.753906 489.167969 719.207031 487.101562 724.597656 C 485.878906 727.917969 483.882812 730.425781 481.136719 732.152344 C 478.390625 733.878906 475.613281 734.761719 472.835938 734.761719 C 468.703125 734.761719 465.144531 733.269531 462.09375 730.289062 C 459.042969 727.308594 457.554688 723.75 457.554688 719.546875 C 457.554688 715.3125 463.921875 712.566406 462.09375 708.671875 C 454.742188 692.949219 436.445312 702.605469 435.257812 703.894531 C 431.054688 708.433594 428.140625 714.058594 426.449219 720.765625 C 424.789062 727.476562 423.972656 735.304688 423.972656 744.25 C 423.972656 749.09375 424.585938 754.246094 425.839844 759.667969 C 427.089844 765.085938 428.886719 770.441406 431.226562 775.589844 C 433.5625 780.742188 436.851562 785.078125 441.085938 788.535156 C 460.128906 804.121094 493.164062 774.847656 511.394531 763.191406 " clip-rule="nonzero"/></clipPath><clipPath id="7eac72086d"><path d="M 0 0.0390625 L 227.539062 0.0390625 L 227.539062 155 L 0 155 Z M 0 0.0390625 " clip-rule="nonzero"/></clipPath><clipPath id="ee1b9c18b0"><path d="M 114.363281 116.257812 L 114.363281 30.835938 C 114.363281 26.160156 113.039062 22.027344 110.429688 18.503906 C 97.894531 1.660156 97.894531 8.742188 137.367188 0.171875 L 137.097656 101.652344 L 178.0625 75.359375 C 181.824219 72.921875 201.136719 61.367188 199.003906 57.84375 C 186.128906 36.597656 249.21875 43.273438 212.726562 63.027344 C 207 66.144531 194.058594 74.988281 189.378906 78.003906 L 171.726562 89.355469 L 205.238281 134.554688 C 208.289062 138.6875 211.746094 142.179688 215.707031 145.027344 C 223.265625 150.480469 227.433594 146.414062 227.433594 153.191406 L 187.007812 153.191406 L 149.601562 103.550781 L 135.4375 112.632812 C 136.996094 124.015625 142.585938 132.589844 146.449219 136.011719 C 154.003906 142.753906 159.902344 146.550781 159.902344 153.15625 L 96.132812 153.15625 C 95.757812 146.515625 104.265625 144.789062 109.378906 135.910156 C 111.039062 133.03125 113.277344 129.066406 114.089844 125.984375 C 99.484375 135.335938 82.207031 147.972656 66.078125 152.785156 C 61.164062 154.242188 56.726562 154.613281 51.167969 154.613281 C 35.886719 154.613281 23.519531 149.429688 14.132812 139.0625 C 4.746094 128.695312 0.0351562 115.613281 0.0351562 99.757812 C 0.0351562 82.339844 4.949219 68.855469 14.742188 59.300781 C 24.535156 49.742188 38.460938 43.542969 55.132812 43.542969 C 63.398438 43.542969 70.582031 45.574219 77.496094 48.898438 C 82.917969 51.539062 86.8125 55.773438 89.492188 61.332031 C 92.101562 66.753906 92.167969 72.207031 90.101562 77.597656 C 88.878906 80.917969 86.882812 83.425781 84.136719 85.152344 C 81.390625 86.878906 78.613281 87.761719 75.835938 87.761719 C 71.703125 87.761719 68.144531 86.269531 65.09375 83.289062 C 62.042969 80.308594 60.554688 76.75 60.554688 72.546875 C 60.554688 68.3125 66.921875 65.566406 65.09375 61.671875 C 57.742188 45.949219 39.445312 55.605469 38.257812 56.894531 C 34.054688 61.433594 31.140625 67.058594 29.449219 73.765625 C 27.789062 80.476562 26.972656 88.304688 26.972656 97.25 C 26.972656 102.09375 27.585938 107.246094 28.839844 112.667969 C 30.089844 118.085938 31.886719 123.441406 34.226562 128.589844 C 36.5625 133.742188 39.851562 138.078125 44.085938 141.535156 C 63.128906 157.121094 96.164062 127.847656 114.394531 116.191406 " clip-rule="nonzero"/></clipPath><clipPath id="b5af83820c"><rect x="0" width="228" y="0" height="155"/></clipPath><clipPath id="88a513c64e"><path d="M 396.175781 646 L 625.324219 646 L 625.324219 802.898438 L 396.175781 802.898438 Z M 396.175781 646 " clip-rule="nonzero"/></clipPath><clipPath id="ea1f1190d7"><path d="M 510.445312 763.257812 L 510.445312 677.835938 L 511.363281 677.835938 L 510.445312 677.835938 C 510.445312 673.328125 509.191406 669.398438 506.683594 666.042969 C 505.328125 664.25 504.144531 662.722656 503.128906 661.402344 C 502.382812 660.417969 501.703125 659.574219 501.128906 658.828125 C 499.535156 656.691406 498.011719 654.421875 500.042969 652.929688 C 501.46875 651.882812 504.820312 651.40625 510.039062 650.628906 C 515.460938 649.8125 523.324219 648.628906 534.132812 646.289062 L 535.214844 646.054688 L 535.214844 647.171875 L 535.011719 748.652344 L 534.097656 748.652344 L 533.625 747.910156 L 574.589844 721.613281 L 575.0625 722.359375 L 574.554688 721.613281 C 574.960938 721.34375 575.539062 720.96875 576.25 720.53125 C 577.367188 719.820312 578.859375 718.902344 580.449219 717.851562 C 588.074219 712.90625 596.140625 706.875 595.191406 705.316406 L 595.96875 704.84375 L 595.191406 705.316406 C 591.800781 699.726562 593.292969 695.589844 597.15625 693.253906 C 603.796875 689.222656 617.894531 690.339844 621.347656 696 C 623.585938 699.691406 621.042969 704.300781 612.808594 709.28125 C 611.964844 709.789062 611.082031 710.296875 610.132812 710.804688 L 609.691406 710.027344 L 610.132812 710.804688 C 606.035156 713.042969 598.207031 718.226562 592.378906 722.089844 C 590.109375 723.578125 588.175781 724.867188 586.855469 725.714844 L 586.378906 724.96875 L 586.855469 725.714844 L 569.203125 737.066406 L 568.726562 736.320312 L 569.4375 735.777344 L 602.949219 780.980469 C 605.933594 785.046875 609.355469 788.46875 613.21875 791.246094 C 616.265625 793.449219 618.738281 794.023438 620.636719 794.464844 C 621.722656 794.703125 622.804688 794.941406 623.652344 795.550781 C 624.871094 796.429688 625.3125 797.855469 625.3125 800.15625 L 625.3125 801.074219 L 583.566406 801.074219 L 583.296875 800.699219 L 545.890625 751.09375 L 546.601562 750.550781 L 547.074219 751.296875 L 532.910156 760.378906 L 532.4375 759.632812 L 533.316406 759.496094 C 534.878906 770.679688 540.367188 779.046875 544.058594 782.335938 C 545.28125 783.417969 546.429688 784.433594 547.550781 785.382812 C 548.566406 786.230469 549.515625 787.078125 550.429688 787.890625 C 554.664062 791.6875 557.816406 795.144531 557.816406 800.191406 L 557.816406 801.105469 L 492.285156 801.105469 L 492.25 800.257812 C 492.011719 796.058594 494.960938 793.585938 498.046875 790.941406 C 500.585938 788.738281 503.433594 786.300781 505.601562 782.503906 L 506.378906 782.945312 L 505.601562 782.503906 C 507.261719 779.625 509.464844 775.761719 510.242188 772.8125 L 511.125 773.050781 L 511.597656 773.796875 C 508.988281 775.457031 506.277344 777.253906 503.5 779.082031 C 500.585938 781.011719 497.605469 782.980469 494.589844 784.910156 C 484.457031 791.414062 473.714844 797.617188 463.382812 800.734375 L 463.109375 799.851562 L 463.382812 800.734375 C 458.367188 802.226562 453.828125 802.597656 448.234375 802.597656 L 448.234375 801.683594 L 448.234375 802.597656 C 432.714844 802.597656 420.113281 797.3125 410.523438 786.773438 L 411.199219 786.164062 L 410.523438 786.773438 C 400.933594 776.234375 396.191406 762.886719 396.191406 746.859375 L 397.105469 746.859375 L 396.191406 746.859375 C 396.191406 729.273438 401.136719 715.515625 411.167969 705.757812 L 411.808594 706.402344 L 411.167969 705.757812 C 421.160156 696 435.257812 689.730469 452.199219 689.730469 L 452.199219 690.644531 L 452.199219 689.730469 C 460.636719 689.730469 467.921875 691.796875 474.9375 695.183594 C 480.5625 697.929688 484.59375 702.335938 487.335938 708.027344 L 486.523438 708.433594 L 487.335938 708.027344 C 490.082031 713.6875 490.148438 719.410156 487.980469 725.003906 L 487.132812 724.664062 L 487.980469 724.96875 C 486.695312 728.460938 484.558594 731.136719 481.644531 732.964844 C 478.765625 734.761719 475.851562 735.710938 472.871094 735.710938 L 472.871094 734.796875 L 472.871094 735.710938 C 468.5 735.710938 464.703125 734.117188 461.484375 730.964844 L 462.128906 730.324219 L 461.484375 730.964844 C 458.265625 727.816406 456.671875 724.019531 456.671875 719.582031 L 457.585938 719.582031 L 456.671875 719.582031 C 456.671875 717.277344 458.230469 715.414062 459.449219 713.921875 C 460.703125 712.398438 461.550781 711.28125 461.550781 710.09375 C 461.550781 709.789062 461.484375 709.417969 461.316406 709.042969 C 455.894531 697.421875 444.035156 700.503906 438.410156 703.113281 C 436.953125 703.792969 436.140625 704.332031 435.96875 704.503906 C 431.902344 708.941406 429.023438 714.398438 427.363281 720.96875 L 426.480469 720.734375 L 427.363281 720.9375 C 425.738281 727.542969 424.921875 735.304688 424.921875 744.214844 L 424.007812 744.214844 L 424.921875 744.214844 C 424.921875 748.957031 425.53125 754.074219 426.753906 759.464844 L 425.871094 759.667969 L 426.753906 759.464844 C 428.007812 764.851562 429.769531 770.136719 432.074219 775.21875 L 431.257812 775.589844 L 432.074219 775.21875 C 434.375 780.300781 437.5625 784.46875 441.660156 787.859375 L 441.085938 788.570312 L 441.660156 787.859375 C 456.808594 800.257812 481.507812 783.011719 500.449219 769.59375 C 504.246094 766.917969 507.769531 764.410156 510.886719 762.445312 L 511.363281 763.191406 L 510.445312 763.191406 M 512.242188 763.191406 L 512.242188 763.699219 L 511.835938 763.96875 C 508.785156 765.933594 505.261719 768.410156 501.46875 771.085938 C 483.203125 783.996094 456.976562 802.734375 440.476562 789.246094 C 436.140625 785.6875 432.785156 781.285156 430.378906 775.964844 C 428.039062 770.746094 426.210938 765.359375 424.957031 759.871094 C 423.703125 754.378906 423.058594 749.128906 423.058594 744.25 C 423.058594 735.234375 423.871094 727.339844 425.566406 720.53125 C 427.296875 713.6875 430.277344 707.925781 434.582031 703.285156 L 435.257812 703.894531 L 434.582031 703.285156 C 434.582031 703.285156 434.613281 703.25 434.613281 703.25 C 435.019531 702.84375 436.140625 702.164062 437.5625 701.488281 C 443.152344 698.878906 456.671875 695.015625 462.875 708.265625 L 462.058594 708.636719 L 462.875 708.265625 C 463.144531 708.875 463.28125 709.484375 463.28125 710.058594 C 463.28125 711.992188 461.890625 713.652344 460.773438 715.007812 C 459.449219 716.632812 458.402344 717.988281 458.402344 719.515625 C 458.402344 723.445312 459.789062 726.796875 462.671875 729.609375 C 465.550781 732.421875 468.90625 733.847656 472.765625 733.847656 C 475.375 733.847656 477.953125 733.035156 480.59375 731.375 L 481.070312 732.152344 L 480.59375 731.375 C 483.167969 729.78125 485.066406 727.410156 486.21875 724.257812 C 488.21875 719.105469 488.152344 713.890625 485.644531 708.703125 C 483.035156 703.316406 479.273438 699.25 474.054688 696.710938 L 474.460938 695.898438 L 474.054688 696.710938 C 467.246094 693.421875 460.230469 691.421875 452.097656 691.421875 C 435.628906 691.421875 421.976562 697.488281 412.351562 706.910156 C 402.761719 716.261719 397.917969 729.507812 397.917969 746.722656 C 397.917969 762.410156 402.558594 775.285156 411.777344 785.453125 C 420.957031 795.582031 433.054688 800.699219 448.132812 800.699219 C 453.65625 800.699219 457.992188 800.359375 462.773438 798.902344 C 472.835938 795.886719 483.40625 789.789062 493.539062 783.285156 C 496.554688 781.351562 499.535156 779.386719 502.449219 777.488281 C 505.226562 775.660156 507.9375 773.863281 510.582031 772.203125 L 512.546875 770.949219 L 511.9375 773.1875 C 511.089844 776.40625 508.753906 780.503906 507.125 783.316406 C 504.753906 787.417969 501.703125 790.058594 499.164062 792.230469 C 495.910156 795.042969 493.808594 796.90625 493.980469 800.054688 L 493.0625 800.089844 L 493.0625 799.175781 L 556.832031 799.175781 L 556.832031 800.089844 L 555.917969 800.089844 C 555.917969 795.957031 553.378906 792.941406 549.140625 789.144531 C 548.261719 788.367188 547.3125 787.554688 546.296875 786.671875 C 545.175781 785.722656 543.992188 784.707031 542.773438 783.589844 L 543.382812 782.910156 L 542.773438 783.589844 C 538.738281 779.996094 533.046875 771.222656 531.453125 759.667969 L 531.386719 759.089844 L 531.859375 758.785156 L 546.023438 749.703125 L 546.738281 749.265625 L 547.246094 749.941406 L 584.652344 799.582031 L 583.941406 800.125 L 583.941406 799.207031 L 624.332031 799.207031 L 624.332031 800.125 L 623.417969 800.125 C 623.417969 798.023438 622.976562 797.34375 622.5 797.007812 C 622.027344 796.667969 621.347656 796.5 620.128906 796.226562 C 618.164062 795.785156 615.417969 795.144531 612.066406 792.738281 L 612.605469 791.992188 L 612.066406 792.738281 C 608.03125 789.855469 604.507812 786.265625 601.390625 782.0625 L 602.101562 781.519531 L 601.390625 782.0625 L 567.878906 736.863281 L 567.304688 736.082031 L 568.117188 735.574219 L 585.769531 724.222656 C 587.058594 723.375 589.023438 722.089844 591.261719 720.597656 C 597.054688 716.734375 604.984375 711.484375 609.152344 709.214844 C 610.097656 708.703125 610.945312 708.195312 611.761719 707.722656 C 620.164062 702.605469 620.941406 699.015625 619.6875 696.914062 C 617.011719 692.472656 604.203125 691.015625 598.003906 694.777344 C 595.054688 696.574219 593.699219 699.523438 596.648438 704.367188 C 598.78125 707.890625 587.5 715.347656 581.332031 719.34375 C 579.707031 720.394531 578.214844 721.308594 577.097656 722.054688 C 576.386719 722.496094 575.808594 722.867188 575.402344 723.105469 L 534.4375 749.398438 L 533.046875 750.28125 L 533.046875 748.621094 L 533.285156 647.171875 L 534.199219 647.171875 L 534.402344 648.050781 C 523.527344 650.425781 515.628906 651.609375 510.175781 652.421875 C 504.617188 653.269531 501.976562 653.675781 500.992188 654.386719 C 500.6875 654.625 500.347656 654.964844 502.449219 657.777344 C 502.992188 658.488281 503.636719 659.335938 504.414062 660.316406 C 505.433594 661.640625 506.652344 663.164062 508.007812 664.996094 L 507.296875 665.535156 L 508.007812 664.996094 C 510.75 668.652344 512.140625 672.992188 512.140625 677.835938 L 512.140625 763.257812 Z M 512.242188 763.191406 " clip-rule="nonzero"/></clipPath><clipPath id="ba07b2ae63"><path d="M 0.175781 0 L 229.324219 0 L 229.324219 156.800781 L 0.175781 156.800781 Z M 0.175781 0 " clip-rule="nonzero"/></clipPath><clipPath id="e2b7fd9895"><path d="M 114.445312 117.257812 L 114.445312 31.835938 L 115.363281 31.835938 L 114.445312 31.835938 C 114.445312 27.328125 113.191406 23.398438 110.683594 20.042969 C 109.328125 18.25 108.144531 16.722656 107.128906 15.402344 C 106.382812 14.417969 105.703125 13.574219 105.128906 12.828125 C 103.535156 10.691406 102.011719 8.421875 104.042969 6.929688 C 105.46875 5.882812 108.820312 5.40625 114.039062 4.628906 C 119.460938 3.8125 127.324219 2.628906 138.132812 0.289062 L 139.214844 0.0546875 L 139.214844 1.171875 L 139.011719 102.652344 L 138.097656 102.652344 L 137.625 101.910156 L 178.589844 75.613281 L 179.0625 76.359375 L 178.554688 75.613281 C 178.960938 75.34375 179.539062 74.96875 180.25 74.53125 C 181.367188 73.820312 182.859375 72.902344 184.449219 71.851562 C 192.074219 66.90625 200.140625 60.875 199.191406 59.316406 L 199.96875 58.84375 L 199.191406 59.316406 C 195.800781 53.726562 197.292969 49.589844 201.15625 47.253906 C 207.796875 43.222656 221.894531 44.339844 225.347656 50 C 227.585938 53.691406 225.042969 58.300781 216.808594 63.28125 C 215.964844 63.789062 215.082031 64.296875 214.132812 64.804688 L 213.691406 64.027344 L 214.132812 64.804688 C 210.035156 67.042969 202.207031 72.226562 196.378906 76.089844 C 194.109375 77.578125 192.175781 78.867188 190.855469 79.714844 L 190.378906 78.96875 L 190.855469 79.714844 L 173.203125 91.066406 L 172.726562 90.320312 L 173.4375 89.777344 L 206.949219 134.980469 C 209.933594 139.046875 213.355469 142.46875 217.21875 145.246094 C 220.265625 147.449219 222.738281 148.023438 224.636719 148.464844 C 225.722656 148.703125 226.804688 148.941406 227.652344 149.550781 C 228.871094 150.429688 229.3125 151.855469 229.3125 154.15625 L 229.3125 155.074219 L 187.566406 155.074219 L 187.296875 154.699219 L 149.890625 105.09375 L 150.601562 104.550781 L 151.074219 105.296875 L 136.910156 114.378906 L 136.4375 113.632812 L 137.316406 113.496094 C 138.878906 124.679688 144.367188 133.046875 148.058594 136.335938 C 149.28125 137.417969 150.429688 138.433594 151.550781 139.382812 C 152.566406 140.230469 153.515625 141.078125 154.429688 141.890625 C 158.664062 145.6875 161.816406 149.144531 161.816406 154.191406 L 161.816406 155.105469 L 96.285156 155.105469 L 96.25 154.257812 C 96.011719 150.058594 98.960938 147.585938 102.046875 144.941406 C 104.585938 142.738281 107.433594 140.300781 109.601562 136.503906 L 110.378906 136.945312 L 109.601562 136.503906 C 111.261719 133.625 113.464844 129.761719 114.242188 126.8125 L 115.125 127.050781 L 115.597656 127.796875 C 112.988281 129.457031 110.277344 131.253906 107.5 133.082031 C 104.585938 135.011719 101.605469 136.980469 98.589844 138.910156 C 88.457031 145.414062 77.714844 151.617188 67.382812 154.734375 L 67.109375 153.851562 L 67.382812 154.734375 C 62.367188 156.226562 57.828125 156.597656 52.234375 156.597656 L 52.234375 155.683594 L 52.234375 156.597656 C 36.714844 156.597656 24.113281 151.3125 14.523438 140.773438 L 15.199219 140.164062 L 14.523438 140.773438 C 4.933594 130.234375 0.191406 116.886719 0.191406 100.859375 L 1.105469 100.859375 L 0.191406 100.859375 C 0.191406 83.273438 5.136719 69.515625 15.167969 59.757812 L 15.808594 60.402344 L 15.167969 59.757812 C 25.160156 50 39.257812 43.730469 56.199219 43.730469 L 56.199219 44.644531 L 56.199219 43.730469 C 64.636719 43.730469 71.921875 45.796875 78.9375 49.183594 C 84.5625 51.929688 88.59375 56.335938 91.335938 62.027344 L 90.523438 62.433594 L 91.335938 62.027344 C 94.082031 67.6875 94.148438 73.410156 91.980469 79.003906 L 91.132812 78.664062 L 91.980469 78.96875 C 90.695312 82.460938 88.558594 85.136719 85.644531 86.964844 C 82.765625 88.761719 79.851562 89.710938 76.871094 89.710938 L 76.871094 88.796875 L 76.871094 89.710938 C 72.5 89.710938 68.703125 88.117188 65.484375 84.964844 L 66.128906 84.324219 L 65.484375 84.964844 C 62.265625 81.816406 60.671875 78.019531 60.671875 73.582031 L 61.585938 73.582031 L 60.671875 73.582031 C 60.671875 71.277344 62.230469 69.414062 63.449219 67.921875 C 64.703125 66.398438 65.550781 65.28125 65.550781 64.09375 C 65.550781 63.789062 65.484375 63.417969 65.316406 63.042969 C 59.894531 51.421875 48.035156 54.503906 42.410156 57.113281 C 40.953125 57.792969 40.140625 58.332031 39.96875 58.503906 C 35.902344 62.941406 33.023438 68.398438 31.363281 74.96875 L 30.480469 74.734375 L 31.363281 74.9375 C 29.738281 81.542969 28.921875 89.304688 28.921875 98.214844 L 28.007812 98.214844 L 28.921875 98.214844 C 28.921875 102.957031 29.53125 108.074219 30.753906 113.464844 L 29.871094 113.667969 L 30.753906 113.464844 C 32.007812 118.851562 33.769531 124.136719 36.074219 129.21875 L 35.257812 129.589844 L 36.074219 129.21875 C 38.375 134.300781 41.5625 138.46875 45.660156 141.859375 L 45.085938 142.570312 L 45.660156 141.859375 C 60.808594 154.257812 85.507812 137.011719 104.449219 123.59375 C 108.246094 120.917969 111.769531 118.410156 114.886719 116.445312 L 115.363281 117.191406 L 114.445312 117.191406 M 116.242188 117.191406 L 116.242188 117.699219 L 115.835938 117.96875 C 112.785156 119.933594 109.261719 122.410156 105.46875 125.085938 C 87.203125 137.996094 60.976562 156.734375 44.476562 143.246094 C 40.140625 139.6875 36.785156 135.285156 34.378906 129.964844 C 32.039062 124.746094 30.210938 119.359375 28.957031 113.871094 C 27.703125 108.378906 27.058594 103.128906 27.058594 98.25 C 27.058594 89.234375 27.871094 81.339844 29.566406 74.53125 C 31.296875 67.6875 34.277344 61.925781 38.582031 57.285156 L 39.257812 57.894531 L 38.582031 57.285156 C 38.582031 57.285156 38.613281 57.25 38.613281 57.25 C 39.019531 56.84375 40.140625 56.164062 41.5625 55.488281 C 47.152344 52.878906 60.671875 49.015625 66.875 62.265625 L 66.058594 62.636719 L 66.875 62.265625 C 67.144531 62.875 67.28125 63.484375 67.28125 64.058594 C 67.28125 65.992188 65.890625 67.652344 64.773438 69.007812 C 63.449219 70.632812 62.402344 71.988281 62.402344 73.515625 C 62.402344 77.445312 63.789062 80.796875 66.671875 83.609375 C 69.550781 86.421875 72.90625 87.847656 76.765625 87.847656 C 79.375 87.847656 81.953125 87.035156 84.59375 85.375 L 85.070312 86.152344 L 84.59375 85.375 C 87.167969 83.78125 89.066406 81.410156 90.21875 78.257812 C 92.21875 73.105469 92.152344 67.890625 89.644531 62.703125 C 87.035156 57.316406 83.273438 53.25 78.054688 50.710938 L 78.460938 49.898438 L 78.054688 50.710938 C 71.246094 47.421875 64.230469 45.421875 56.097656 45.421875 C 39.628906 45.421875 25.976562 51.488281 16.351562 60.910156 C 6.761719 70.261719 1.917969 83.507812 1.917969 100.722656 C 1.917969 116.410156 6.558594 129.285156 15.777344 139.453125 C 24.957031 149.582031 37.054688 154.699219 52.132812 154.699219 C 57.65625 154.699219 61.992188 154.359375 66.773438 152.902344 C 76.835938 149.886719 87.40625 143.789062 97.539062 137.285156 C 100.554688 135.351562 103.535156 133.386719 106.449219 131.488281 C 109.226562 129.660156 111.9375 127.863281 114.582031 126.203125 L 116.546875 124.949219 L 115.9375 127.1875 C 115.089844 130.40625 112.753906 134.503906 111.125 137.316406 C 108.753906 141.417969 105.703125 144.058594 103.164062 146.230469 C 99.910156 149.042969 97.808594 150.90625 97.980469 154.054688 L 97.0625 154.089844 L 97.0625 153.175781 L 160.832031 153.175781 L 160.832031 154.089844 L 159.917969 154.089844 C 159.917969 149.957031 157.378906 146.941406 153.140625 143.144531 C 152.261719 142.367188 151.3125 141.554688 150.296875 140.671875 C 149.175781 139.722656 147.992188 138.707031 146.773438 137.589844 L 147.382812 136.910156 L 146.773438 137.589844 C 142.738281 133.996094 137.046875 125.222656 135.453125 113.667969 L 135.386719 113.089844 L 135.859375 112.785156 L 150.023438 103.703125 L 150.738281 103.265625 L 151.246094 103.941406 L 188.652344 153.582031 L 187.941406 154.125 L 187.941406 153.207031 L 228.332031 153.207031 L 228.332031 154.125 L 227.417969 154.125 C 227.417969 152.023438 226.976562 151.34375 226.5 151.007812 C 226.027344 150.667969 225.347656 150.5 224.128906 150.226562 C 222.164062 149.785156 219.417969 149.144531 216.066406 146.738281 L 216.605469 145.992188 L 216.066406 146.738281 C 212.03125 143.855469 208.507812 140.265625 205.390625 136.0625 L 206.101562 135.519531 L 205.390625 136.0625 L 171.878906 90.863281 L 171.304688 90.082031 L 172.117188 89.574219 L 189.769531 78.222656 C 191.058594 77.375 193.023438 76.089844 195.261719 74.597656 C 201.054688 70.734375 208.984375 65.484375 213.152344 63.214844 C 214.097656 62.703125 214.945312 62.195312 215.761719 61.722656 C 224.164062 56.605469 224.941406 53.015625 223.6875 50.914062 C 221.011719 46.472656 208.203125 45.015625 202.003906 48.777344 C 199.054688 50.574219 197.699219 53.523438 200.648438 58.367188 C 202.78125 61.890625 191.5 69.347656 185.332031 73.34375 C 183.707031 74.394531 182.214844 75.308594 181.097656 76.054688 C 180.386719 76.496094 179.808594 76.867188 179.402344 77.105469 L 138.4375 103.398438 L 137.046875 104.28125 L 137.046875 102.621094 L 137.285156 1.171875 L 138.199219 1.171875 L 138.402344 2.050781 C 127.527344 4.425781 119.628906 5.609375 114.175781 6.421875 C 108.617188 7.269531 105.976562 7.675781 104.992188 8.386719 C 104.6875 8.625 104.347656 8.964844 106.449219 11.777344 C 106.992188 12.488281 107.636719 13.335938 108.414062 14.316406 C 109.433594 15.640625 110.652344 17.164062 112.007812 18.996094 L 111.296875 19.535156 L 112.007812 18.996094 C 114.75 22.652344 116.140625 26.992188 116.140625 31.835938 L 116.140625 117.257812 Z M 116.242188 117.191406 " clip-rule="nonzero"/></clipPath><clipPath id="78e81d0e72"><rect x="0" width="230" y="0" height="157"/></clipPath><clipPath id="0858cf9c42"><path d="M 241.324219 688.71875 L 332.828125 688.71875 L 332.828125 800.554688 L 241.324219 800.554688 Z M 241.324219 688.71875 " clip-rule="nonzero"/></clipPath><clipPath id="c8b56c8f92"><path d="M 331.84375 703.722656 C 333.640625 708.976562 332.65625 713.753906 328.929688 718.023438 C 325.203125 722.324219 321.101562 724.324219 316.496094 724.054688 C 312.359375 723.78125 308.871094 722.089844 306.023438 718.972656 C 303.179688 715.855469 301.925781 712.160156 302.195312 707.890625 C 302.332031 704.707031 303.414062 701.859375 305.414062 699.386719 C 307.414062 696.878906 309.921875 695.152344 312.96875 694.203125 C 312.699219 694.066406 312.328125 693.863281 311.816406 693.59375 C 311.34375 693.320312 310.191406 693.355469 308.429688 693.695312 C 303.382812 694.675781 297.144531 700.980469 293.824219 704.636719 C 288.878906 710.160156 285.183594 716.734375 285.21875 724.019531 C 285.285156 737.097656 285.285156 751.535156 285.285156 764.140625 C 285.285156 768.273438 285.625 771.796875 286.066406 775.050781 C 286.472656 778.300781 287.285156 781.691406 288.539062 785.179688 C 289.792969 788.738281 291.828125 791.449219 294.742188 793.382812 C 301.890625 798.125 305.3125 792.941406 305.3125 800.191406 L 241.984375 800.191406 C 241.984375 790.570312 259.570312 802.292969 259.570312 766.238281 L 259.570312 713.007812 C 259.570312 710.261719 259.027344 707.960938 257.910156 706.09375 C 256.789062 704.230469 255.503906 702.945312 253.976562 702.265625 C 252.453125 701.589844 250.960938 701.046875 249.4375 700.707031 C 244.1875 699.523438 245.914062 701.722656 243.847656 695.21875 L 281.730469 688.816406 L 285.457031 701.011719 C 286.269531 700.472656 287.761719 699.523438 289.828125 698.097656 C 291.859375 696.742188 293.65625 695.558594 295.214844 694.574219 C 303.789062 689.1875 312.800781 688.714844 322.320312 693.117188 C 327 695.355469 330.183594 698.84375 331.84375 703.691406 " clip-rule="nonzero"/></clipPath><clipPath id="b535c4eff2"><path d="M 0.921875 0.71875 L 91.828125 0.71875 L 91.828125 112.554688 L 0.921875 112.554688 Z M 0.921875 0.71875 " clip-rule="nonzero"/></clipPath><clipPath id="470f907378"><path d="M 90.84375 15.722656 C 92.640625 20.976562 91.65625 25.753906 87.929688 30.023438 C 84.203125 34.324219 80.101562 36.324219 75.496094 36.054688 C 71.359375 35.78125 67.871094 34.089844 65.023438 30.972656 C 62.179688 27.855469 60.925781 24.160156 61.195312 19.890625 C 61.332031 16.707031 62.414062 13.859375 64.414062 11.386719 C 66.414062 8.878906 68.921875 7.152344 71.96875 6.203125 C 71.699219 6.066406 71.328125 5.863281 70.816406 5.59375 C 70.34375 5.320312 69.191406 5.355469 67.429688 5.695312 C 62.382812 6.675781 56.144531 12.980469 52.824219 16.636719 C 47.878906 22.160156 44.183594 28.734375 44.21875 36.019531 C 44.285156 49.097656 44.285156 63.535156 44.285156 76.140625 C 44.285156 80.273438 44.625 83.796875 45.066406 87.050781 C 45.472656 90.300781 46.285156 93.691406 47.539062 97.179688 C 48.792969 100.738281 50.828125 103.449219 53.742188 105.382812 C 60.890625 110.125 64.3125 104.941406 64.3125 112.191406 L 0.984375 112.191406 C 0.984375 102.570312 18.570312 114.292969 18.570312 78.238281 L 18.570312 25.007812 C 18.570312 22.261719 18.027344 19.960938 16.910156 18.09375 C 15.789062 16.230469 14.503906 14.945312 12.976562 14.265625 C 11.453125 13.589844 9.960938 13.046875 8.4375 12.707031 C 3.1875 11.523438 4.914062 13.722656 2.847656 7.21875 L 40.730469 0.816406 L 44.457031 13.011719 C 45.269531 12.472656 46.761719 11.523438 48.828125 10.097656 C 50.859375 8.742188 52.65625 7.558594 54.214844 6.574219 C 62.789062 1.1875 71.800781 0.714844 81.320312 5.117188 C 86 7.355469 89.183594 10.84375 90.84375 15.691406 " clip-rule="nonzero"/></clipPath><clipPath id="e373ed924e"><rect x="0" width="92" y="0" height="113"/></clipPath><clipPath id="4e75249b8d"><path d="M 241 687.152344 L 333.609375 687.152344 L 333.609375 801.335938 L 241 801.335938 Z M 241 687.152344 " clip-rule="nonzero"/></clipPath><clipPath id="4137bd8280"><path d="M 332.691406 703.417969 C 334.589844 709.007812 333.539062 714.09375 329.605469 718.597656 L 328.929688 717.988281 L 329.605469 718.566406 C 325.746094 723.003906 321.375 725.207031 316.425781 724.902344 C 312.089844 724.597656 308.363281 722.800781 305.347656 719.515625 C 302.332031 716.191406 301.007812 712.296875 301.28125 707.789062 L 302.195312 707.859375 L 301.28125 707.824219 C 301.414062 704.433594 302.566406 701.417969 304.703125 698.808594 L 305.414062 699.386719 L 304.703125 698.808594 C 306.804688 696.167969 309.480469 694.335938 312.699219 693.320312 L 312.96875 694.167969 L 312.5625 694.980469 C 312.257812 694.847656 311.886719 694.644531 311.378906 694.335938 C 311.175781 694.234375 310.394531 694.203125 308.597656 694.542969 C 303.921875 695.421875 297.890625 701.453125 294.503906 705.214844 L 293.824219 704.605469 L 294.503906 705.214844 C 289.625 710.636719 286.101562 717.039062 286.132812 723.988281 L 285.21875 723.988281 L 286.132812 723.988281 C 286.203125 737.066406 286.203125 751.5 286.203125 764.105469 L 285.320312 764.105469 L 286.234375 764.105469 C 286.234375 768.171875 286.574219 771.660156 287.015625 774.914062 C 287.386719 778.097656 288.199219 781.386719 289.453125 784.84375 C 290.640625 788.230469 292.570312 790.773438 295.316406 792.601562 L 294.808594 793.347656 L 295.316406 792.601562 C 298.195312 794.53125 300.433594 794.703125 302.09375 794.839844 C 302.972656 794.90625 303.992188 794.972656 304.769531 795.480469 C 305.957031 796.261719 306.261719 797.785156 306.261719 800.125 L 306.261719 801.039062 L 241.066406 801.039062 L 241.066406 800.125 C 241.066406 796.160156 243.746094 795.175781 246.386719 794.160156 C 251.199219 792.261719 258.652344 789.621094 258.652344 766.207031 L 259.570312 766.207031 L 258.652344 766.207031 L 258.652344 713.007812 L 259.570312 713.007812 L 258.652344 713.007812 C 258.652344 710.363281 258.144531 708.230469 257.128906 706.570312 L 257.910156 706.09375 L 257.128906 706.570312 C 256.078125 704.808594 254.925781 703.691406 253.605469 703.113281 C 252.148438 702.4375 250.691406 701.929688 249.234375 701.589844 L 249.4375 700.707031 L 249.234375 701.589844 C 248.015625 701.316406 247.203125 701.214844 246.589844 701.183594 C 246.285156 701.148438 245.980469 701.113281 245.710938 701.046875 C 245.539062 701.011719 245.371094 700.945312 245.203125 700.878906 C 245 700.777344 244.828125 700.640625 244.660156 700.472656 C 244.253906 699.996094 244.050781 699.21875 243.8125 698.300781 C 243.609375 697.625 243.371094 696.710938 243 695.523438 L 242.695312 694.542969 L 243.710938 694.371094 L 281.59375 687.933594 L 282.371094 687.796875 L 282.609375 688.542969 L 286.335938 700.742188 L 285.457031 701.011719 L 284.949219 700.265625 C 285.761719 699.726562 287.21875 698.777344 289.320312 697.386719 C 291.351562 696.03125 293.148438 694.847656 294.707031 693.863281 L 295.179688 694.644531 L 294.707031 693.863281 C 303.550781 688.304688 312.902344 687.796875 322.695312 692.339844 C 327.609375 694.675781 330.960938 698.371094 332.691406 703.417969 M 330.960938 703.996094 L 331.808594 703.691406 L 330.960938 703.996094 C 329.402344 699.386719 326.386719 696.066406 321.914062 693.964844 L 322.289062 693.152344 L 321.914062 693.964844 C 312.664062 689.695312 303.957031 690.171875 295.65625 695.386719 C 294.128906 696.335938 292.335938 697.523438 290.300781 698.878906 L 289.792969 698.132812 L 290.300781 698.878906 C 288.234375 700.265625 286.742188 701.25 285.929688 701.792969 L 284.914062 702.4375 L 284.574219 701.285156 L 280.847656 689.085938 L 281.730469 688.816406 L 281.863281 689.695312 L 243.980469 696.101562 L 243.847656 695.21875 L 244.695312 694.949219 C 245.101562 696.203125 245.335938 697.117188 245.539062 697.792969 C 245.847656 698.945312 245.949219 699.183594 246.015625 699.25 C 246.015625 699.25 245.980469 699.21875 245.980469 699.21875 C 245.980469 699.21875 246.015625 699.21875 246.082031 699.25 C 246.21875 699.285156 246.421875 699.320312 246.761719 699.351562 C 247.371094 699.421875 248.285156 699.523438 249.605469 699.792969 C 251.199219 700.164062 252.757812 700.707031 254.316406 701.417969 L 253.945312 702.234375 L 254.316406 701.417969 C 256.078125 702.199219 257.503906 703.65625 258.652344 705.621094 C 259.875 707.652344 260.417969 710.128906 260.417969 713.007812 L 260.417969 766.238281 C 260.417969 790.332031 252.589844 793.6875 246.996094 795.886719 C 244.253906 796.972656 242.832031 797.582031 242.832031 800.191406 L 241.914062 800.191406 L 241.914062 799.277344 L 305.347656 799.277344 L 305.347656 800.191406 L 304.429688 800.191406 C 304.429688 797.785156 304.023438 797.242188 303.71875 797.039062 C 303.414062 796.835938 302.941406 796.769531 301.890625 796.667969 C 300.128906 796.53125 297.554688 796.296875 294.265625 794.125 C 291.183594 792.058594 289.015625 789.179688 287.726562 785.484375 L 288.574219 785.179688 L 287.726562 785.484375 C 286.4375 781.929688 285.625 778.503906 285.21875 775.152344 L 286.132812 775.050781 L 285.253906 775.152344 C 284.8125 771.863281 284.472656 768.273438 284.472656 764.105469 C 284.472656 751.5 284.472656 737.066406 284.40625 723.988281 C 284.371094 716.394531 288.199219 709.621094 293.25 703.996094 C 296.535156 700.371094 302.941406 693.796875 308.363281 692.746094 L 308.53125 693.625 L 308.363281 692.746094 C 309.988281 692.40625 311.445312 692.269531 312.257812 692.675781 C 312.328125 692.710938 312.359375 692.746094 312.429688 692.746094 L 311.953125 693.523438 L 312.394531 692.746094 C 312.867188 693.015625 313.207031 693.1875 313.480469 693.320312 L 315.476562 694.304688 L 313.34375 694.980469 C 310.460938 695.898438 308.125 697.523438 306.226562 699.859375 C 304.328125 702.164062 303.347656 704.808594 303.210938 707.824219 C 302.972656 711.855469 304.160156 715.3125 306.804688 718.226562 L 306.125 718.835938 L 306.804688 718.226562 C 309.480469 721.175781 312.765625 722.734375 316.664062 723.003906 L 316.597656 723.917969 L 316.664062 723.003906 C 320.898438 723.273438 324.761719 721.445312 328.355469 717.3125 C 331.878906 713.277344 332.757812 708.875 331.0625 703.894531 Z M 330.960938 703.996094 " clip-rule="nonzero"/></clipPath><clipPath id="cbf8e22f41"><path d="M 0 0.601562 L 92.609375 0.601562 L 92.609375 114.121094 L 0 114.121094 Z M 0 0.601562 " clip-rule="nonzero"/></clipPath><clipPath id="7d8f0192aa"><path d="M 91.691406 16.417969 C 93.589844 22.007812 92.539062 27.09375 88.605469 31.597656 L 87.929688 30.988281 L 88.605469 31.566406 C 84.746094 36.003906 80.375 38.207031 75.425781 37.902344 C 71.089844 37.597656 67.363281 35.800781 64.347656 32.515625 C 61.332031 29.191406 60.007812 25.296875 60.28125 20.789062 L 61.195312 20.859375 L 60.28125 20.824219 C 60.414062 17.433594 61.566406 14.417969 63.703125 11.808594 L 64.414062 12.386719 L 63.703125 11.808594 C 65.804688 9.167969 68.480469 7.335938 71.699219 6.320312 L 71.96875 7.167969 L 71.5625 7.980469 C 71.257812 7.847656 70.886719 7.644531 70.378906 7.335938 C 70.175781 7.234375 69.394531 7.203125 67.597656 7.542969 C 62.921875 8.421875 56.890625 14.453125 53.503906 18.214844 L 52.824219 17.605469 L 53.503906 18.214844 C 48.625 23.636719 45.101562 30.039062 45.132812 36.988281 L 44.21875 36.988281 L 45.132812 36.988281 C 45.203125 50.066406 45.203125 64.5 45.203125 77.105469 L 44.320312 77.105469 L 45.234375 77.105469 C 45.234375 81.171875 45.574219 84.660156 46.015625 87.914062 C 46.386719 91.097656 47.199219 94.386719 48.453125 97.84375 C 49.640625 101.230469 51.570312 103.773438 54.316406 105.601562 L 53.808594 106.347656 L 54.316406 105.601562 C 57.195312 107.53125 59.433594 107.703125 61.09375 107.839844 C 61.972656 107.90625 62.992188 107.972656 63.769531 108.480469 C 64.957031 109.261719 65.261719 110.785156 65.261719 113.125 L 65.261719 114.039062 L 0.0664062 114.039062 L 0.0664062 113.125 C 0.0664062 109.160156 2.746094 108.175781 5.386719 107.160156 C 10.199219 105.261719 17.652344 102.621094 17.652344 79.207031 L 18.570312 79.207031 L 17.652344 79.207031 L 17.652344 26.007812 L 18.570312 26.007812 L 17.652344 26.007812 C 17.652344 23.363281 17.144531 21.230469 16.128906 19.570312 L 16.910156 19.09375 L 16.128906 19.570312 C 15.078125 17.808594 13.925781 16.691406 12.605469 16.113281 C 11.148438 15.4375 9.691406 14.929688 8.234375 14.589844 L 8.4375 13.707031 L 8.234375 14.589844 C 7.015625 14.316406 6.203125 14.214844 5.589844 14.183594 C 5.285156 14.148438 4.980469 14.113281 4.710938 14.046875 C 4.539062 14.011719 4.371094 13.945312 4.203125 13.878906 C 4 13.777344 3.828125 13.640625 3.660156 13.472656 C 3.253906 12.996094 3.050781 12.21875 2.8125 11.300781 C 2.609375 10.625 2.371094 9.710938 2 8.523438 L 1.695312 7.542969 L 2.710938 7.371094 L 40.59375 0.933594 L 41.371094 0.796875 L 41.609375 1.542969 L 45.335938 13.742188 L 44.457031 14.011719 L 43.949219 13.265625 C 44.761719 12.726562 46.21875 11.777344 48.320312 10.386719 C 50.351562 9.03125 52.148438 7.847656 53.707031 6.863281 L 54.179688 7.644531 L 53.707031 6.863281 C 62.550781 1.304688 71.902344 0.796875 81.695312 5.339844 C 86.609375 7.675781 89.960938 11.371094 91.691406 16.417969 M 89.960938 16.996094 L 90.808594 16.691406 L 89.960938 16.996094 C 88.402344 12.386719 85.386719 9.066406 80.914062 6.964844 L 81.289062 6.152344 L 80.914062 6.964844 C 71.664062 2.695312 62.957031 3.171875 54.65625 8.386719 C 53.128906 9.335938 51.335938 10.523438 49.300781 11.878906 L 48.792969 11.132812 L 49.300781 11.878906 C 47.234375 13.265625 45.742188 14.25 44.929688 14.792969 L 43.914062 15.4375 L 43.574219 14.285156 L 39.847656 2.085938 L 40.730469 1.816406 L 40.863281 2.695312 L 2.980469 9.101562 L 2.847656 8.21875 L 3.695312 7.949219 C 4.101562 9.203125 4.335938 10.117188 4.539062 10.792969 C 4.847656 11.945312 4.949219 12.183594 5.015625 12.25 C 5.015625 12.25 4.980469 12.21875 4.980469 12.21875 C 4.980469 12.21875 5.015625 12.21875 5.082031 12.25 C 5.21875 12.285156 5.421875 12.320312 5.761719 12.351562 C 6.371094 12.421875 7.285156 12.523438 8.605469 12.792969 C 10.199219 13.164062 11.757812 13.707031 13.316406 14.417969 L 12.945312 15.234375 L 13.316406 14.417969 C 15.078125 15.199219 16.503906 16.65625 17.652344 18.621094 C 18.875 20.652344 19.417969 23.128906 19.417969 26.007812 L 19.417969 79.238281 C 19.417969 103.332031 11.589844 106.6875 5.996094 108.886719 C 3.253906 109.972656 1.832031 110.582031 1.832031 113.191406 L 0.914062 113.191406 L 0.914062 112.277344 L 64.347656 112.277344 L 64.347656 113.191406 L 63.429688 113.191406 C 63.429688 110.785156 63.023438 110.242188 62.71875 110.039062 C 62.414062 109.835938 61.941406 109.769531 60.890625 109.667969 C 59.128906 109.53125 56.554688 109.296875 53.265625 107.125 C 50.183594 105.058594 48.015625 102.179688 46.726562 98.484375 L 47.574219 98.179688 L 46.726562 98.484375 C 45.4375 94.929688 44.625 91.503906 44.21875 88.152344 L 45.132812 88.050781 L 44.253906 88.152344 C 43.8125 84.863281 43.472656 81.273438 43.472656 77.105469 C 43.472656 64.5 43.472656 50.066406 43.40625 36.988281 C 43.371094 29.394531 47.199219 22.621094 52.25 16.996094 C 55.535156 13.371094 61.941406 6.796875 67.363281 5.746094 L 67.53125 6.625 L 67.363281 5.746094 C 68.988281 5.40625 70.445312 5.269531 71.257812 5.675781 C 71.328125 5.710938 71.359375 5.746094 71.429688 5.746094 L 70.953125 6.523438 L 71.394531 5.746094 C 71.867188 6.015625 72.207031 6.1875 72.480469 6.320312 L 74.476562 7.304688 L 72.34375 7.980469 C 69.460938 8.898438 67.125 10.523438 65.226562 12.859375 C 63.328125 15.164062 62.347656 17.808594 62.210938 20.824219 C 61.972656 24.855469 63.160156 28.3125 65.804688 31.226562 L 65.125 31.835938 L 65.804688 31.226562 C 68.480469 34.175781 71.765625 35.734375 75.664062 36.003906 L 75.597656 36.917969 L 75.664062 36.003906 C 79.898438 36.273438 83.761719 34.445312 87.355469 30.3125 C 90.878906 26.277344 91.757812 21.875 90.0625 16.894531 Z M 89.960938 16.996094 " clip-rule="nonzero"/></clipPath><clipPath id="b2fccd83c4"><rect x="0" width="93" y="0" height="115"/></clipPath><clipPath id="87f90e0295"><path d="M 98.207031 648.050781 L 239.761719 648.050781 L 239.761719 801.335938 L 98.207031 801.335938 Z M 98.207031 648.050781 " clip-rule="nonzero"/></clipPath><clipPath id="99127eff83"><path d="M 98.925781 648.1875 L 239.101562 648.1875 L 235.410156 688.816406 C 231.378906 676.683594 209.082031 663.164062 195.832031 660.453125 C 192.75 659.808594 189.734375 659.640625 186.71875 659.640625 L 184.449219 659.640625 L 184.449219 770.375 C 184.449219 777.964844 186.242188 784.367188 189.800781 789.652344 C 196.105469 798.871094 201.628906 794.703125 201.628906 801.039062 L 136.195312 801.039062 C 136.195312 794.972656 137.214844 798.902344 142.5 795.957031 C 144.363281 794.90625 145.855469 793.71875 147.039062 792.433594 C 148.226562 791.109375 149.242188 789.214844 150.054688 786.738281 C 150.867188 784.230469 151.480469 782.0625 151.917969 780.097656 C 152.359375 778.132812 152.632812 775.558594 152.867188 772.339844 C 153.070312 769.085938 153.308594 766.75 153.308594 764.984375 L 153.308594 659.605469 L 151.105469 659.605469 C 127.660156 659.605469 115.019531 671.230469 102.617188 688.78125 Z M 98.925781 648.1875 " clip-rule="nonzero"/></clipPath><clipPath id="6c77c1c822"><path d="M 0.878906 0.0507812 L 141.28125 0.0507812 L 141.28125 153.121094 L 0.878906 153.121094 Z M 0.878906 0.0507812 " clip-rule="nonzero"/></clipPath><clipPath id="69104046ee"><path d="M 0.925781 0.1875 L 141.101562 0.1875 L 137.410156 40.816406 C 133.378906 28.683594 111.082031 15.164062 97.832031 12.453125 C 94.75 11.808594 91.734375 11.640625 88.71875 11.640625 L 86.449219 11.640625 L 86.449219 122.375 C 86.449219 129.964844 88.242188 136.367188 91.800781 141.652344 C 98.105469 150.871094 103.628906 146.703125 103.628906 153.039062 L 38.195312 153.039062 C 38.195312 146.972656 39.214844 150.902344 44.5 147.957031 C 46.363281 146.90625 47.855469 145.71875 49.039062 144.433594 C 50.226562 143.109375 51.242188 141.214844 52.054688 138.738281 C 52.867188 136.230469 53.480469 134.0625 53.917969 132.097656 C 54.359375 130.132812 54.632812 127.558594 54.867188 124.339844 C 55.070312 121.085938 55.308594 118.75 55.308594 116.984375 L 55.308594 11.605469 L 53.105469 11.605469 C 29.660156 11.605469 17.019531 23.230469 4.617188 40.78125 Z M 0.925781 0.1875 " clip-rule="nonzero"/></clipPath><clipPath id="4bc31bc653"><rect x="0" width="142" y="0" height="154"/></clipPath><clipPath id="1425436c7b"><path d="M 97.421875 647.265625 L 240.542969 647.265625 L 240.542969 802 L 97.421875 802 Z M 97.421875 647.265625 " clip-rule="nonzero"/></clipPath><clipPath id="b9f15bc039"><path d="M 98.925781 647.308594 L 240.085938 647.308594 L 239.984375 648.289062 L 236.289062 688.917969 L 235.882812 693.21875 L 234.527344 689.121094 C 230.632812 677.429688 208.777344 664.046875 195.628906 661.367188 C 192.648438 660.757812 189.699219 660.554688 186.683594 660.554688 L 186.683594 659.640625 L 186.683594 660.554688 L 184.414062 660.554688 L 184.414062 659.640625 L 185.328125 659.640625 L 185.328125 770.375 L 184.414062 770.375 L 185.328125 770.375 C 185.328125 777.828125 187.089844 784.027344 190.546875 789.144531 L 189.800781 789.652344 L 190.546875 789.144531 C 193.597656 793.585938 196.375 794.734375 198.476562 795.617188 C 199.660156 796.125 200.914062 796.601562 201.695312 797.75 C 202.269531 798.597656 202.507812 799.648438 202.507812 801.039062 L 202.507812 801.953125 L 135.28125 801.953125 L 135.28125 801.039062 C 135.28125 799.140625 135.351562 797.820312 135.960938 797.074219 C 136.09375 796.90625 136.265625 796.769531 136.433594 796.703125 C 136.941406 796.429688 137.550781 796.398438 137.960938 796.363281 C 138.839844 796.296875 140.128906 796.226562 142.058594 795.175781 L 142.5 795.957031 L 142.058594 795.175781 C 143.855469 794.195312 145.277344 793.042969 146.394531 791.855469 L 147.074219 792.464844 L 146.394531 791.855469 C 147.480469 790.671875 148.429688 788.875 149.207031 786.46875 L 150.054688 786.738281 L 149.207031 786.46875 C 150.023438 783.996094 150.632812 781.828125 151.039062 779.929688 C 151.445312 778.066406 151.75 775.523438 151.953125 772.304688 C 152.019531 771.425781 152.054688 770.609375 152.121094 769.867188 C 152.15625 769.222656 152.222656 768.613281 152.257812 768.070312 C 152.324219 766.851562 152.394531 765.867188 152.394531 765.019531 L 153.308594 765.019531 L 152.394531 765.019531 L 152.394531 757.734375 L 153.308594 757.734375 L 152.394531 757.734375 L 152.394531 735.710938 L 153.308594 735.710938 L 152.394531 735.710938 L 152.394531 659.605469 L 153.308594 659.605469 L 153.308594 660.523438 L 151.105469 660.523438 L 151.105469 659.605469 L 151.105469 660.523438 C 128.066406 660.523438 115.664062 671.871094 103.363281 689.324219 L 101.941406 691.320312 L 101.703125 688.882812 L 98.042969 648.289062 L 97.941406 647.308594 L 98.925781 647.308594 M 98.925781 649.101562 L 98.925781 648.1875 L 99.839844 648.121094 L 103.53125 688.714844 L 102.617188 688.78125 L 101.871094 688.273438 C 114.34375 670.617188 127.21875 658.691406 151.105469 658.691406 L 154.222656 658.691406 L 154.222656 765.019531 C 154.222656 765.933594 154.15625 766.984375 154.089844 768.171875 C 154.054688 768.746094 154.019531 769.324219 153.953125 769.96875 C 153.882812 770.710938 153.851562 771.527344 153.78125 772.40625 L 152.867188 772.339844 L 153.78125 772.40625 C 153.578125 775.625 153.273438 778.300781 152.835938 780.300781 L 151.953125 780.097656 L 152.835938 780.300781 C 152.394531 782.265625 151.785156 784.503906 150.9375 787.011719 C 150.089844 789.550781 149.039062 791.585938 147.75 793.007812 C 146.496094 794.363281 144.90625 795.617188 142.972656 796.703125 C 140.703125 797.957031 139.144531 798.058594 138.128906 798.125 C 137.550781 798.160156 137.449219 798.191406 137.382812 798.226562 C 137.28125 798.328125 137.113281 798.835938 137.113281 801.003906 L 136.195312 801.003906 L 136.195312 800.089844 L 201.628906 800.089844 L 201.628906 801.003906 L 200.710938 801.003906 C 200.710938 799.785156 200.507812 799.140625 200.203125 798.734375 C 199.796875 798.125 199.085938 797.785156 197.765625 797.242188 C 195.527344 796.296875 192.34375 794.972656 189.023438 790.128906 C 185.328125 784.671875 183.5 778.097656 183.5 770.339844 L 183.5 658.691406 L 186.683594 658.691406 C 189.769531 658.691406 192.851562 658.859375 196.003906 659.539062 L 195.832031 660.417969 L 196.003906 659.539062 C 209.386719 662.285156 232.054688 675.90625 236.257812 688.507812 L 235.410156 688.78125 L 234.496094 688.714844 L 238.1875 648.121094 L 239.101562 648.1875 L 239.101562 649.101562 Z M 98.925781 649.101562 " clip-rule="nonzero"/></clipPath><clipPath id="342b930966"><path d="M 0.921875 0.28125 L 143.238281 0.28125 L 143.238281 155 L 0.921875 155 Z M 0.921875 0.28125 " clip-rule="nonzero"/></clipPath><clipPath id="409b00e8a4"><path d="M 1.925781 0.308594 L 143.085938 0.308594 L 142.984375 1.289062 L 139.289062 41.917969 L 138.882812 46.21875 L 137.527344 42.121094 C 133.632812 30.429688 111.777344 17.046875 98.628906 14.367188 C 95.648438 13.757812 92.699219 13.554688 89.683594 13.554688 L 89.683594 12.640625 L 89.683594 13.554688 L 87.414062 13.554688 L 87.414062 12.640625 L 88.328125 12.640625 L 88.328125 123.375 L 87.414062 123.375 L 88.328125 123.375 C 88.328125 130.828125 90.089844 137.027344 93.546875 142.144531 L 92.800781 142.652344 L 93.546875 142.144531 C 96.597656 146.585938 99.375 147.734375 101.476562 148.617188 C 102.660156 149.125 103.914062 149.601562 104.695312 150.75 C 105.269531 151.597656 105.507812 152.648438 105.507812 154.039062 L 105.507812 154.953125 L 38.28125 154.953125 L 38.28125 154.039062 C 38.28125 152.140625 38.351562 150.820312 38.960938 150.074219 C 39.09375 149.90625 39.265625 149.769531 39.433594 149.703125 C 39.941406 149.429688 40.550781 149.398438 40.960938 149.363281 C 41.839844 149.296875 43.128906 149.226562 45.058594 148.175781 L 45.5 148.957031 L 45.058594 148.175781 C 46.855469 147.195312 48.277344 146.042969 49.394531 144.855469 L 50.074219 145.464844 L 49.394531 144.855469 C 50.480469 143.671875 51.429688 141.875 52.207031 139.46875 L 53.054688 139.738281 L 52.207031 139.46875 C 53.023438 136.996094 53.632812 134.828125 54.039062 132.929688 C 54.445312 131.066406 54.75 128.523438 54.953125 125.304688 C 55.019531 124.425781 55.054688 123.609375 55.121094 122.867188 C 55.15625 122.222656 55.222656 121.613281 55.257812 121.070312 C 55.324219 119.851562 55.394531 118.867188 55.394531 118.019531 L 56.308594 118.019531 L 55.394531 118.019531 L 55.394531 110.734375 L 56.308594 110.734375 L 55.394531 110.734375 L 55.394531 88.710938 L 56.308594 88.710938 L 55.394531 88.710938 L 55.394531 12.605469 L 56.308594 12.605469 L 56.308594 13.523438 L 54.105469 13.523438 L 54.105469 12.605469 L 54.105469 13.523438 C 31.066406 13.523438 18.664062 24.871094 6.363281 42.324219 L 4.941406 44.320312 L 4.703125 41.882812 L 1.042969 1.289062 L 0.941406 0.308594 L 1.925781 0.308594 M 1.925781 2.101562 L 1.925781 1.1875 L 2.839844 1.121094 L 6.53125 41.714844 L 5.617188 41.78125 L 4.871094 41.273438 C 17.34375 23.617188 30.21875 11.691406 54.105469 11.691406 L 57.222656 11.691406 L 57.222656 118.019531 C 57.222656 118.933594 57.15625 119.984375 57.089844 121.171875 C 57.054688 121.746094 57.019531 122.324219 56.953125 122.96875 C 56.882812 123.710938 56.851562 124.527344 56.78125 125.40625 L 55.867188 125.339844 L 56.78125 125.40625 C 56.578125 128.625 56.273438 131.300781 55.835938 133.300781 L 54.953125 133.097656 L 55.835938 133.300781 C 55.394531 135.265625 54.785156 137.503906 53.9375 140.011719 C 53.089844 142.550781 52.039062 144.585938 50.75 146.007812 C 49.496094 147.363281 47.90625 148.617188 45.972656 149.703125 C 43.703125 150.957031 42.144531 151.058594 41.128906 151.125 C 40.550781 151.160156 40.449219 151.191406 40.382812 151.226562 C 40.28125 151.328125 40.113281 151.835938 40.113281 154.003906 L 39.195312 154.003906 L 39.195312 153.089844 L 104.628906 153.089844 L 104.628906 154.003906 L 103.710938 154.003906 C 103.710938 152.785156 103.507812 152.140625 103.203125 151.734375 C 102.796875 151.125 102.085938 150.785156 100.765625 150.242188 C 98.527344 149.296875 95.34375 147.972656 92.023438 143.128906 C 88.328125 137.671875 86.5 131.097656 86.5 123.339844 L 86.5 11.691406 L 89.683594 11.691406 C 92.769531 11.691406 95.851562 11.859375 99.003906 12.539062 L 98.832031 13.417969 L 99.003906 12.539062 C 112.386719 15.285156 135.054688 28.90625 139.257812 41.507812 L 138.410156 41.78125 L 137.496094 41.714844 L 141.1875 1.121094 L 142.101562 1.1875 L 142.101562 2.101562 Z M 1.925781 2.101562 " clip-rule="nonzero"/></clipPath><clipPath id="ce32793e96"><rect x="0" width="144" y="0" height="155"/></clipPath><clipPath id="020ebdfdd4"><path d="M 336 697.320312 L 399 697.320312 L 399 802 L 336 802 Z M 336 697.320312 " clip-rule="nonzero"/></clipPath><clipPath id="04a861f680"><path d="M 377.585938 699.960938 C 377.585938 699.960938 371.828125 696.675781 360.984375 698.335938 C 344.585938 700.878906 333.4375 704.46875 336.890625 719.886719 L 354.648438 717.785156 C 354.648438 730.289062 354.546875 747.398438 354.648438 763.15625 C 354.75 783.925781 356.578125 801.953125 368.4375 801.953125 C 379.011719 801.953125 425.058594 767.832031 377.417969 782.773438 Z M 377.585938 699.960938 " clip-rule="nonzero"/></clipPath><clipPath id="6ff74d5d3b"><path d="M 0 0.320312 L 63 0.320312 L 63 105 L 0 105 Z M 0 0.320312 " clip-rule="nonzero"/></clipPath><clipPath id="95b76adbd2"><path d="M 41.585938 2.960938 C 41.585938 2.960938 35.828125 -0.324219 24.984375 1.335938 C 8.585938 3.878906 -2.5625 7.46875 0.890625 22.886719 L 18.648438 20.785156 C 18.648438 33.289062 18.546875 50.398438 18.648438 66.15625 C 18.75 86.925781 20.578125 104.953125 32.4375 104.953125 C 43.011719 104.953125 89.058594 70.832031 41.417969 85.773438 Z M 41.585938 2.960938 " clip-rule="nonzero"/></clipPath><clipPath id="8ab0d89851"><rect x="0" width="63" y="0" height="105"/></clipPath><clipPath id="a3da2bbb86"><path d="M 335.171875 697 L 400 697 L 400 803 L 335.171875 803 Z M 335.171875 697 " clip-rule="nonzero"/></clipPath><clipPath id="fa1cfc2541"><path d="M 377.113281 700.742188 C 377.214844 700.808594 373.722656 698.777344 366.914062 698.777344 C 365.1875 698.777344 363.21875 698.914062 361.085938 699.25 L 360.949219 698.371094 L 361.085938 699.25 C 345.160156 701.722656 335.402344 705.046875 337.402344 717.921875 C 337.503906 718.496094 337.605469 719.105469 337.738281 719.71875 L 336.859375 719.921875 L 336.757812 719.003906 L 354.511719 716.90625 L 355.527344 716.769531 L 355.527344 717.785156 C 355.527344 721.683594 355.527344 726.054688 355.496094 730.695312 C 355.496094 735.949219 355.460938 741.503906 355.460938 747.164062 C 355.460938 752.484375 355.460938 757.90625 355.496094 763.15625 C 355.597656 784.503906 357.628906 801.039062 368.371094 801.039062 L 368.371094 801.953125 L 368.371094 801.039062 C 375.316406 801.039062 397.648438 785.789062 397.648438 780.980469 C 397.648438 780.640625 397.441406 779.894531 394.699219 779.894531 C 391.582031 779.894531 386.160156 780.945312 377.621094 783.621094 L 376.433594 783.996094 L 376.433594 782.773438 L 376.605469 699.996094 L 377.519531 699.996094 L 377.078125 700.777344 M 377.960938 699.21875 L 378.398438 699.488281 L 378.398438 700.03125 L 378.230469 782.808594 L 377.316406 782.808594 L 377.046875 781.960938 C 385.617188 779.285156 391.242188 778.132812 394.664062 778.132812 C 397.339844 778.132812 399.410156 778.878906 399.410156 781.046875 C 399.410156 787.417969 375.589844 802.9375 368.335938 802.9375 C 355.359375 802.9375 353.765625 783.453125 353.664062 763.257812 L 354.578125 763.257812 L 353.664062 763.257812 C 353.632812 758.007812 353.632812 752.585938 353.632812 747.265625 C 353.632812 741.605469 353.632812 736.015625 353.664062 730.796875 C 353.664062 726.15625 353.699219 721.816406 353.699219 717.886719 L 354.613281 717.886719 L 354.714844 718.800781 L 336.960938 720.902344 L 336.148438 721.003906 L 335.976562 720.191406 C 335.84375 719.546875 335.707031 718.902344 335.605469 718.261719 C 333.300781 703.417969 345.296875 699.929688 360.816406 697.523438 C 363.050781 697.183594 365.117188 697.046875 366.949219 697.046875 C 374.097656 697.046875 377.925781 699.183594 378.027344 699.25 Z M 377.960938 699.21875 " clip-rule="nonzero"/></clipPath><clipPath id="1d66383116"><path d="M 0.171875 0 L 64.601562 0 L 64.601562 106 L 0.171875 106 Z M 0.171875 0 " clip-rule="nonzero"/></clipPath><clipPath id="3fcb5537f8"><path d="M 42.113281 3.742188 C 42.214844 3.808594 38.722656 1.777344 31.914062 1.777344 C 30.1875 1.777344 28.21875 1.914062 26.085938 2.25 L 25.949219 1.371094 L 26.085938 2.25 C 10.160156 4.722656 0.402344 8.046875 2.402344 20.921875 C 2.503906 21.496094 2.605469 22.105469 2.738281 22.71875 L 1.859375 22.921875 L 1.757812 22.003906 L 19.511719 19.90625 L 20.527344 19.769531 L 20.527344 20.785156 C 20.527344 24.683594 20.527344 29.054688 20.496094 33.695312 C 20.496094 38.949219 20.460938 44.503906 20.460938 50.164062 C 20.460938 55.484375 20.460938 60.90625 20.496094 66.15625 C 20.597656 87.503906 22.628906 104.039062 33.371094 104.039062 L 33.371094 104.953125 L 33.371094 104.039062 C 40.316406 104.039062 62.648438 88.789062 62.648438 83.980469 C 62.648438 83.640625 62.441406 82.894531 59.699219 82.894531 C 56.582031 82.894531 51.160156 83.945312 42.621094 86.621094 L 41.433594 86.996094 L 41.433594 85.773438 L 41.605469 2.996094 L 42.519531 2.996094 L 42.078125 3.777344 M 42.960938 2.21875 L 43.398438 2.488281 L 43.398438 3.03125 L 43.230469 85.808594 L 42.316406 85.808594 L 42.046875 84.960938 C 50.617188 82.285156 56.242188 81.132812 59.664062 81.132812 C 62.339844 81.132812 64.410156 81.878906 64.410156 84.046875 C 64.410156 90.417969 40.589844 105.9375 33.335938 105.9375 C 20.359375 105.9375 18.765625 86.453125 18.664062 66.257812 L 19.578125 66.257812 L 18.664062 66.257812 C 18.632812 61.007812 18.632812 55.585938 18.632812 50.265625 C 18.632812 44.605469 18.632812 39.015625 18.664062 33.796875 C 18.664062 29.15625 18.699219 24.816406 18.699219 20.886719 L 19.613281 20.886719 L 19.714844 21.800781 L 1.960938 23.902344 L 1.148438 24.003906 L 0.976562 23.191406 C 0.84375 22.546875 0.707031 21.902344 0.605469 21.261719 C -1.699219 6.417969 10.296875 2.929688 25.816406 0.523438 C 28.050781 0.183594 30.117188 0.046875 31.949219 0.046875 C 39.097656 0.046875 42.925781 2.183594 43.027344 2.25 Z M 42.960938 2.21875 " clip-rule="nonzero"/></clipPath><clipPath id="b63791050f"><rect x="0" width="65" y="0" height="106"/></clipPath></defs><g clip-path="url(#c254a83504)"><g clip-path="url(#2600ef1a2c)"><g transform="matrix(1, 0, 0, 1, 343, 639)"><g clip-path="url(#15849cdc66)"><g clip-path="url(#f6e042f6c2)"><g clip-path="url(#dfa763104c)"><rect x="-521.2" width="1166.4" fill="#000000" height="2073.599906" y="-955.799986" fill-opacity="1"/></g></g></g></g></g></g><g clip-path="url(#d8001264ac)"><g clip-path="url(#294f205472)"><g transform="matrix(1, 0, 0, 1, 341, 636)"><g clip-path="url(#eaaa523cf0)"><g clip-path="url(#090365f0ec)"><g clip-path="url(#c02617e1f6)"><rect x="-519.2" width="1166.4" fill="#000000" height="2073.599906" y="-952.799986" fill-opacity="1"/></g></g></g></g></g></g><g clip-path="url(#79c0926cbf)"><g clip-path="url(#a01337329e)"><g transform="matrix(1, 0, 0, 1, 630, 691)"><g clip-path="url(#1e6516ad9e)"><g clip-path="url(#8e4387a17f)"><g clip-path="url(#7cf21fc205)"><rect x="-808.2" width="1166.4" fill="#000000" height="2073.599906" y="-1007.799986" fill-opacity="1"/></g></g></g></g></g></g><g clip-path="url(#330a2e94be)"><g clip-path="url(#ea05edbe8e)"><g transform="matrix(1, 0, 0, 1, 629, 690)"><g clip-path="url(#f2ad12f5b5)"><g clip-path="url(#226e21626b)"><g clip-path="url(#17c29c1c03)"><rect x="-807.2" width="1166.4" fill="#000000" height="2073.599906" y="-1006.799986" fill-opacity="1"/></g></g></g></g></g></g><g clip-path="url(#54efcbbb3d)"><g clip-path="url(#43bbc193a1)"><g transform="matrix(1, 0, 0, 1, 397, 647)"><g clip-path="url(#b5af83820c)"><g clip-path="url(#7eac72086d)"><g clip-path="url(#ee1b9c18b0)"><rect x="-575.2" width="1166.4" fill="#000000" height="2073.599906" y="-963.799986" fill-opacity="1"/></g></g></g></g></g></g><g clip-path="url(#88a513c64e)"><g clip-path="url(#ea1f1190d7)"><g transform="matrix(1, 0, 0, 1, 396, 646)"><g clip-path="url(#78e81d0e72)"><g clip-path="url(#ba07b2ae63)"><g clip-path="url(#e2b7fd9895)"><rect x="-574.2" width="1166.4" fill="#000000" height="2073.599906" y="-962.799986" fill-opacity="1"/></g></g></g></g></g></g><g clip-path="url(#0858cf9c42)"><g clip-path="url(#c8b56c8f92)"><g transform="matrix(1, 0, 0, 1, 241, 688)"><g clip-path="url(#e373ed924e)"><g clip-path="url(#b535c4eff2)"><g clip-path="url(#470f907378)"><rect x="-419.2" width="1166.4" fill="#000000" height="2073.599906" y="-1004.799986" fill-opacity="1"/></g></g></g></g></g></g><g clip-path="url(#4e75249b8d)"><g clip-path="url(#4137bd8280)"><g transform="matrix(1, 0, 0, 1, 241, 687)"><g clip-path="url(#b2fccd83c4)"><g clip-path="url(#cbf8e22f41)"><g clip-path="url(#7d8f0192aa)"><rect x="-419.2" width="1166.4" fill="#000000" height="2073.599906" y="-1003.799986" fill-opacity="1"/></g></g></g></g></g></g><g clip-path="url(#87f90e0295)"><g clip-path="url(#99127eff83)"><g transform="matrix(1, 0, 0, 1, 98, 648)"><g clip-path="url(#4bc31bc653)"><g clip-path="url(#6c77c1c822)"><g clip-path="url(#69104046ee)"><rect x="-276.2" width="1166.4" fill="#000000" height="2073.599906" y="-964.799986" fill-opacity="1"/></g></g></g></g></g></g><g clip-path="url(#1425436c7b)"><g clip-path="url(#b9f15bc039)"><g transform="matrix(1, 0, 0, 1, 97, 647)"><g clip-path="url(#ce32793e96)"><g clip-path="url(#342b930966)"><g clip-path="url(#409b00e8a4)"><rect x="-275.2" width="1166.4" fill="#000000" height="2073.599906" y="-963.799986" fill-opacity="1"/></g></g></g></g></g></g><g clip-path="url(#020ebdfdd4)"><g clip-path="url(#04a861f680)"><g transform="matrix(1, 0, 0, 1, 336, 697)"><g clip-path="url(#8ab0d89851)"><g clip-path="url(#6ff74d5d3b)"><g clip-path="url(#95b76adbd2)"><rect x="-514.2" width="1166.4" fill="#000000" height="2073.599906" y="-1013.799986" fill-opacity="1"/></g></g></g></g></g></g><g clip-path="url(#a3da2bbb86)"><g clip-path="url(#fa1cfc2541)"><g transform="matrix(1, 0, 0, 1, 335, 697)"><g clip-path="url(#b63791050f)"><g clip-path="url(#1d66383116)"><g clip-path="url(#3fcb5537f8)"><rect x="-513.2" width="1166.4" fill="#000000" height="2073.599906" y="-1013.799986" fill-opacity="1"/></g></g></g></g></g></g></svg>